<svg xmlns="http://www.w3.org/2000/svg" xml:space="preserve" style="fill-rule:evenodd;clip-rule:evenodd;stroke-linejoin:round;stroke-miterlimit:2" viewBox="0 0 1080 1080"><path d="M272.204 551.834h537.064v173.534H272.204z" style="fill:#ff65a9"/><path d="M272.204 560.542h537.064v164.827H272.204zM106.521 518.586h116.005v289.996H106.521z" style="fill:#ff65a9"/><path d="M191.767 441.611h159.122v197.756H191.767z" style="fill:#ff65a9"/><path d="M272.449 357.523h536.016v85.312H272.449z" style="fill:#ff65a9"/><path d="M357.14 270.827h114.471v94.772H357.14z" style="fill:#ff65a9"/><path d="M276.906 186.138h114.471v111.507H276.906zM689.449 186.138H803.92v111.507H689.449zM602.975 770.586h114.471v123.276H602.975zM353.428 770.586h114.471v123.276H353.428zM857.474 518.586h116.005v289.996H857.474z" style="fill:#ff65a9"/><path d="M728.368 437.088h162.3v197.756h-162.3zM609.356 270.827h114.471v94.772H609.356zM467.377 483.275h140.716v80.911H467.377zM467.377 429.573h140.716v27.622H467.377zM635.291 470.201h61.182v59.09h-61.182zM377.801 472.193h61.182v59.09h-61.182zM690.226 725.368h119.043v86.036H690.226zM272.204 725.368h112.742v82.923H272.204z" style="fill:#ff65a9"/></svg>